<?xml version="1.0" encoding="utf-8"?>
<!-- Generator: Adobe Illustrator 24.0.2, SVG Export Plug-In . SVG Version: 6.00 Build 0)  -->
<svg version="1.1" xmlns="http://www.w3.org/2000/svg" xmlns:xlink="http://www.w3.org/1999/xlink" x="0px" y="0px"
    viewBox="0 0 229.7 159.6" style="enable-background:new 0 0 229.7 159.6;" xml:space="preserve">
    <style type="text/css">
        .st0 {
            fill: #D8E0EF;
            stroke: #D8E0EF;
            stroke-width: 2.5;
        }

        .st1 {
            fill: #0E457D;
        }
    </style>
    <g id="Livello_2">
    </g>
    <g id="Livello_1">
        <g>
            <path class="st0" d="M26.9,78.6h-7.7c-6.2,0-11.3-5-11.3-11.3V27.1c0-6,4.8-10.8,10.8-10.8h11.9c6.3,0,11.3,5.1,11.3,11.3v6.2
			c0,2.1-1.7,3.8-3.8,3.8h0c-2.1,0-3.8-1.7-3.8-3.8v-6.1c0-2.1-1.7-3.8-3.8-3.8h-11c-2.1,0-3.8,1.7-3.8,3.8V67
			c0,2.1,1.7,3.8,3.8,3.8h7.4c2.1,0,3.8,1.7,3.8,3.8v0C30.8,76.8,29.1,78.6,26.9,78.6z M57.1,8.2h-7.6c-2.1,0-3.8,1.7-3.8,3.8v0
			c0,2.1,1.7,3.8,3.8,3.8h7.4c2.1,0,3.8,1.7,3.8,3.8v39.2c0,2.1-1.7,3.8-3.8,3.8h-11c-2.1,0-3.8-1.7-3.8-3.8v-6.1
			c0-2.1-1.7-3.8-3.8-3.8h0c-2.1,0-3.8,1.7-3.8,3.8v6.6c0,6.1,4.9,11,11,11h11.8c6.2,0,11.2-5,11.2-11.2V19.5
			C68.4,13.2,63.4,8.2,57.1,8.2z" />
            <path class="st1"
                d="M77.4,137.4L77.4,137.4c-3.4,0-6.2-2.8-6.2-6.2v-12c0-3.4-2.8-6.2-6.2-6.2h-3.5c-3.4,0-6.2,2.8-6.2,6.2v12
			c0,3.4-2.8,6.2-6.2,6.2h0c-3.4,0-6.2-2.8-6.2-6.2V85.8c0-3.4,2.8-6.2,6.2-6.2h0c3.4,0,6.2,2.8,6.2,6.2v11.1c0,3.4,2.8,6.2,6.2,6.2
			h3.5c3.4,0,6.2-2.8,6.2-6.2V85.8c0-3.4,2.8-6.2,6.2-6.2h0c3.4,0,6.2,2.8,6.2,6.2v45.4C83.6,134.6,80.8,137.4,77.4,137.4z" />
            <path class="st1" d="M132.1,132.5v-48c0-2.7,2.2-4.9,4.9-4.9h23.8c2.7,0,4.9,2.2,4.9,4.9v0.4c0,2.7-2.2,4.9-4.9,4.9h-11.4
			c-2.7,0-4.9,2.2-4.9,4.9v3.6c0,2.7,2.2,4.9,4.9,4.9h8.3c2.7,0,4.9,2.2,4.9,4.9v0c0,2.7-2.2,4.9-4.9,4.9h-8.3
			c-2.7,0-4.9,2.2-4.9,4.9v14.7c0,2.7-2.2,4.9-4.9,4.9H137C134.3,137.4,132.1,135.2,132.1,132.5z" />
            <path class="st1" d="M175.2,79.6h2.7c2.6,0,4.7,2.1,4.7,4.7v0c0,2.6-2.1,4.7-4.7,4.7h-2.7c-2.6,0-4.7-2.1-4.7-4.7v0
			C170.5,81.7,172.6,79.6,175.2,79.6z M175.2,92.9h2.7c2.6,0,4.7,2.1,4.7,4.7v35c0,2.6-2.1,4.7-4.7,4.7h-2.7c-2.6,0-4.7-2.1-4.7-4.7
			v-35C170.5,95,172.6,92.9,175.2,92.9z" />
            <path class="st1" d="M216.5,92.9L216.5,92.9c4.4,0,7.1,4.8,4.7,8.6l-6.5,10.4c-1.1,1.8-1.1,4.1,0,6l6.9,10.9
			c2.4,3.7-0.3,8.6-4.7,8.6h-0.3c-2.1,0-4-1.2-5-3.1l-5.3-10.4h-0.1l-5.3,10.4c-1,1.9-2.9,3.1-5,3.1h-0.3c-4.4,0-7.1-4.9-4.7-8.6
			l6.9-10.9c1.2-1.8,1.2-4.1,0-6l-6.5-10.4c-2.3-3.7,0.3-8.6,4.7-8.6h0c2.1,0,4,1.2,5,3l5.2,10h0.1l5.2-10
			C212.5,94.1,214.4,92.9,216.5,92.9z" />
            <path class="st1" d="M95.2,92.9L95.2,92.9c2.7,0,5,1.8,5.7,4.3l7.1,25.2h0.2l6.3-24c0.9-3.3,3.8-5.5,7.2-5.5h0c3.6,0,6.1,3.5,5,7
			l-14.3,42.6c-0.7,2-1.4,3.7-2.3,5.1c-0.9,1.4-2,2.5-3.3,3.4c-1.3,0.9-2.9,1.5-4.8,1.9c-1.9,0.4-4.1,0.6-6.7,0.6
			c-6.4,0-6.3-5.7-6.3-5.7s-0.3-4.2,5.9-4c2.1,0,3.6-0.4,4.5-1.1c0.9-0.7,1.7-2.1,2.4-4l0.2-0.6c0.2-0.6,0.2-1.2,0-1.7l-12.5-35.4
			C88.2,97,91.1,92.9,95.2,92.9z" />
            <g>
                <g>
                    <path class="st1" d="M101.6,43.9c-0.1,0.1-0.1,0.2-0.2,0.2c-0.1,0-0.1,0.1-0.2,0.1c-0.1,0-0.2-0.1-0.4-0.2
					c-0.1-0.1-0.3-0.2-0.5-0.3c-0.2-0.1-0.5-0.2-0.8-0.3s-0.6-0.2-1.1-0.2c-0.4,0-0.7,0.1-1,0.2c-0.3,0.1-0.6,0.2-0.8,0.4
					s-0.4,0.4-0.5,0.6c-0.1,0.2-0.2,0.5-0.2,0.8c0,0.4,0.1,0.7,0.3,0.9c0.2,0.2,0.4,0.4,0.7,0.6c0.3,0.2,0.6,0.3,1,0.4
					s0.8,0.3,1.1,0.4c0.4,0.1,0.8,0.3,1.1,0.4c0.4,0.2,0.7,0.4,1,0.6c0.3,0.3,0.5,0.6,0.7,0.9c0.2,0.4,0.3,0.8,0.3,1.4
					c0,0.6-0.1,1.1-0.3,1.6c-0.2,0.5-0.5,0.9-0.8,1.3c-0.4,0.4-0.8,0.7-1.4,0.9c-0.5,0.2-1.2,0.3-1.8,0.3c-0.8,0-1.6-0.2-2.3-0.5
					c-0.7-0.3-1.3-0.7-1.8-1.2l0.5-0.8c0-0.1,0.1-0.1,0.2-0.2c0.1,0,0.1-0.1,0.2-0.1c0.1,0,0.2,0,0.3,0.1c0.1,0.1,0.2,0.1,0.3,0.2
					s0.3,0.2,0.4,0.3c0.2,0.1,0.3,0.2,0.6,0.3c0.2,0.1,0.4,0.2,0.7,0.2s0.6,0.1,0.9,0.1c0.4,0,0.8-0.1,1.1-0.2s0.6-0.3,0.8-0.5
					c0.2-0.2,0.4-0.5,0.5-0.7c0.1-0.3,0.2-0.6,0.2-1c0-0.4-0.1-0.7-0.3-1c-0.2-0.3-0.4-0.5-0.7-0.6c-0.3-0.2-0.6-0.3-1-0.4
					s-0.8-0.2-1.1-0.4s-0.8-0.3-1.1-0.4c-0.4-0.2-0.7-0.4-1-0.6c-0.3-0.3-0.5-0.6-0.7-1c-0.2-0.4-0.3-0.9-0.3-1.4
					c0-0.5,0.1-0.9,0.3-1.3c0.2-0.4,0.4-0.8,0.8-1.1s0.8-0.6,1.3-0.8c0.5-0.2,1.1-0.3,1.7-0.3c0.7,0,1.4,0.1,2,0.3
					c0.6,0.2,1.1,0.6,1.6,1L101.6,43.9z" />
                    <path class="st1" d="M103.4,47c0.5-0.5,1.1-0.9,1.6-1.1s1.2-0.4,2-0.4c0.5,0,1,0.1,1.4,0.3c0.4,0.2,0.7,0.4,1,0.7
					c0.3,0.3,0.5,0.7,0.6,1.1c0.1,0.4,0.2,0.9,0.2,1.4v5.9h-0.7c-0.2,0-0.3,0-0.4-0.1c-0.1-0.1-0.2-0.2-0.2-0.3l-0.2-0.9
					c-0.2,0.2-0.5,0.4-0.7,0.6c-0.2,0.2-0.5,0.3-0.7,0.4c-0.3,0.1-0.5,0.2-0.8,0.3c-0.3,0.1-0.6,0.1-1,0.1c-0.4,0-0.7,0-1-0.2
					c-0.3-0.1-0.6-0.2-0.8-0.4c-0.2-0.2-0.4-0.5-0.6-0.8c-0.1-0.3-0.2-0.7-0.2-1.1c0-0.4,0.1-0.7,0.3-1c0.2-0.3,0.5-0.6,1-0.9
					c0.4-0.3,1-0.5,1.8-0.6c0.7-0.2,1.6-0.3,2.6-0.3V49c0-0.7-0.2-1.3-0.5-1.6c-0.3-0.4-0.8-0.5-1.4-0.5c-0.4,0-0.7,0-1,0.2
					c-0.3,0.1-0.5,0.2-0.7,0.3c-0.2,0.1-0.4,0.2-0.5,0.3s-0.3,0.2-0.4,0.2c-0.1,0-0.2,0-0.3-0.1s-0.1-0.1-0.2-0.2L103.4,47z
					 M108.6,50.8c-0.7,0-1.4,0.1-1.9,0.2c-0.5,0.1-0.9,0.2-1.3,0.4c-0.3,0.2-0.6,0.3-0.7,0.5c-0.1,0.2-0.2,0.4-0.2,0.7
					c0,0.2,0,0.5,0.1,0.6s0.2,0.3,0.3,0.4c0.1,0.1,0.3,0.2,0.5,0.2c0.2,0.1,0.4,0.1,0.6,0.1c0.3,0,0.5,0,0.8-0.1
					c0.2-0.1,0.5-0.1,0.7-0.2c0.2-0.1,0.4-0.2,0.6-0.4s0.4-0.3,0.6-0.5V50.8z" />
                    <path class="st1" d="M119.6,45.7l-5.1,11.9c-0.1,0.1-0.1,0.2-0.2,0.3c-0.1,0.1-0.2,0.1-0.4,0.1h-1.2l1.7-3.6l-3.8-8.7h1.4
					c0.1,0,0.2,0,0.3,0.1c0.1,0.1,0.1,0.1,0.2,0.2l2.5,5.8c0.1,0.3,0.2,0.5,0.2,0.8c0.1-0.3,0.2-0.6,0.3-0.8l2.4-5.8
					c0-0.1,0.1-0.2,0.2-0.2c0.1-0.1,0.2-0.1,0.3-0.1H119.6z" />
                    <path class="st1" d="M125.5,46.9c0.4-0.4,0.8-0.8,1.3-1c0.5-0.2,1-0.4,1.7-0.4c0.5,0,0.9,0.1,1.3,0.2c0.4,0.2,0.7,0.4,1,0.7
					s0.5,0.7,0.6,1.1c0.1,0.4,0.2,0.9,0.2,1.4v5.9h-1.6v-5.9c0-0.7-0.2-1.2-0.5-1.6c-0.3-0.4-0.8-0.6-1.4-0.6
					c-0.5,0-0.9,0.1-1.3,0.3c-0.4,0.2-0.8,0.5-1.1,0.9v6.8h-1.6V41.5h1.6V46.9z" />
                    <path class="st1" d="M135.3,42.8c0,0.2,0,0.3-0.1,0.4s-0.1,0.3-0.3,0.4c-0.1,0.1-0.2,0.2-0.4,0.2s-0.3,0.1-0.4,0.1
					s-0.3,0-0.4-0.1s-0.3-0.1-0.4-0.2c-0.1-0.1-0.2-0.2-0.2-0.4S133,43,133,42.8s0-0.3,0.1-0.4c0.1-0.1,0.1-0.3,0.2-0.4
					c0.1-0.1,0.2-0.2,0.4-0.2s0.3-0.1,0.4-0.1s0.3,0,0.4,0.1s0.3,0.1,0.4,0.2c0.1,0.1,0.2,0.2,0.3,0.4
					C135.3,42.5,135.3,42.7,135.3,42.8z M135,45.7v9.2h-1.6v-9.2H135z" />
                </g>
            </g>
            <g>
                <g>
                    <path class="st1" d="M80.4,70c-0.7,0-1.3-0.2-1.7-0.6c-0.4-0.4-0.6-1-0.6-1.8V62H77c-0.1,0-0.2,0-0.2-0.1
					c-0.1-0.1-0.1-0.1-0.1-0.3V61l1.5-0.2l0.4-2.8c0-0.1,0.1-0.2,0.1-0.2s0.1-0.1,0.2-0.1h0.8v3.2h2.7V62h-2.7v5.5
					c0,0.4,0.1,0.7,0.3,0.9s0.4,0.3,0.7,0.3c0.2,0,0.3,0,0.4-0.1c0.1,0,0.2-0.1,0.3-0.1c0.1-0.1,0.2-0.1,0.2-0.1
					c0.1,0,0.1-0.1,0.2-0.1c0.1,0,0.2,0.1,0.2,0.2l0.5,0.8c-0.3,0.3-0.6,0.5-1,0.6S80.8,70,80.4,70z" />
                    <path class="st1" d="M87.2,60.5c0.7,0,1.3,0.1,1.8,0.3c0.5,0.2,1,0.5,1.4,1c0.4,0.4,0.7,0.9,0.9,1.5s0.3,1.2,0.3,2
					c0,0.7-0.1,1.4-0.3,2s-0.5,1.1-0.9,1.5c-0.4,0.4-0.8,0.7-1.4,0.9c-0.5,0.2-1.1,0.3-1.8,0.3c-0.7,0-1.3-0.1-1.8-0.3
					c-0.5-0.2-1-0.5-1.4-0.9c-0.4-0.4-0.7-0.9-0.9-1.5s-0.3-1.2-0.3-2c0-0.7,0.1-1.4,0.3-2s0.5-1.1,0.9-1.5c0.4-0.4,0.8-0.7,1.4-1
					C85.9,60.7,86.5,60.5,87.2,60.5z M87.2,68.7c0.9,0,1.6-0.3,2-0.9c0.4-0.6,0.7-1.5,0.7-2.5c0-1.1-0.2-1.9-0.7-2.6
					c-0.4-0.6-1.1-0.9-2-0.9c-0.5,0-0.9,0.1-1.2,0.2s-0.6,0.4-0.9,0.7c-0.2,0.3-0.4,0.7-0.5,1.1s-0.2,0.9-0.2,1.5
					c0,1.1,0.2,1.9,0.7,2.5C85.6,68.4,86.3,68.7,87.2,68.7z" />
                    <path class="st1" d="M104.3,60.7l-5.1,11.9c-0.1,0.1-0.1,0.2-0.2,0.3C98.9,73,98.8,73,98.6,73h-1.2l1.7-3.6l-3.8-8.7h1.4
					c0.1,0,0.2,0,0.3,0.1c0.1,0.1,0.1,0.1,0.2,0.2l2.5,5.8c0.1,0.3,0.2,0.5,0.2,0.8c0.1-0.3,0.2-0.6,0.3-0.8l2.4-5.8
					c0-0.1,0.1-0.2,0.2-0.2c0.1-0.1,0.2-0.1,0.3-0.1H104.3z" />
                    <path class="st1" d="M108.7,60.5c0.7,0,1.3,0.1,1.8,0.3c0.5,0.2,1,0.5,1.4,1c0.4,0.4,0.7,0.9,0.9,1.5s0.3,1.2,0.3,2
					c0,0.7-0.1,1.4-0.3,2s-0.5,1.1-0.9,1.5c-0.4,0.4-0.8,0.7-1.4,0.9c-0.5,0.2-1.1,0.3-1.8,0.3c-0.7,0-1.3-0.1-1.8-0.3
					c-0.5-0.2-1-0.5-1.4-0.9c-0.4-0.4-0.7-0.9-0.9-1.5s-0.3-1.2-0.3-2c0-0.7,0.1-1.4,0.3-2s0.5-1.1,0.9-1.5c0.4-0.4,0.8-0.7,1.4-1
					C107.4,60.7,108,60.5,108.7,60.5z M108.7,68.7c0.9,0,1.6-0.3,2-0.9c0.4-0.6,0.7-1.5,0.7-2.5c0-1.1-0.2-1.9-0.7-2.6
					c-0.4-0.6-1.1-0.9-2-0.9c-0.5,0-0.9,0.1-1.2,0.2s-0.6,0.4-0.9,0.7c-0.2,0.3-0.4,0.7-0.5,1.1s-0.2,0.9-0.2,1.5
					c0,1.1,0.2,1.9,0.7,2.5C107.1,68.4,107.8,68.7,108.7,68.7z" />
                    <path class="st1" d="M121.9,60.7v9.2h-1c-0.2,0-0.4-0.1-0.4-0.3l-0.1-1c-0.4,0.4-0.8,0.8-1.3,1.1c-0.5,0.3-1.1,0.4-1.7,0.4
					c-0.5,0-0.9-0.1-1.3-0.2s-0.7-0.4-1-0.7s-0.5-0.7-0.6-1.1c-0.1-0.4-0.2-0.9-0.2-1.4v-5.9h1.6v5.9c0,0.7,0.2,1.2,0.5,1.6
					c0.3,0.4,0.8,0.6,1.5,0.6c0.5,0,0.9-0.1,1.3-0.3c0.4-0.2,0.8-0.5,1.1-0.9v-6.8H121.9z" />
                    <path class="st1"
                        d="M125.3,62.5c0.3-0.6,0.6-1.1,1.1-1.5c0.4-0.4,0.9-0.5,1.6-0.5c0.2,0,0.4,0,0.6,0.1c0.2,0,0.3,0.1,0.5,0.2
					l-0.1,1.2c0,0.2-0.1,0.2-0.3,0.2c-0.1,0-0.2,0-0.4-0.1c-0.2,0-0.3-0.1-0.6-0.1c-0.3,0-0.5,0-0.8,0.1c-0.2,0.1-0.4,0.2-0.6,0.4
					c-0.2,0.2-0.3,0.4-0.5,0.6s-0.3,0.5-0.4,0.8v5.8h-1.6v-9.2h0.9c0.2,0,0.3,0,0.4,0.1c0.1,0.1,0.1,0.2,0.1,0.3L125.3,62.5z" />
                    <path class="st1" d="M135,60.7v9.9c0,0.4,0,0.7-0.1,1c-0.1,0.3-0.3,0.6-0.5,0.8c-0.2,0.2-0.5,0.4-0.8,0.6
					c-0.3,0.1-0.7,0.2-1.2,0.2c-0.2,0-0.4,0-0.5,0c-0.2,0-0.3-0.1-0.5-0.1l0.1-0.9c0-0.1,0-0.1,0.1-0.1c0,0,0.1,0,0.1,0s0.1,0,0.2,0
					s0.2,0,0.3,0c0.5,0,0.8-0.1,1-0.3s0.3-0.6,0.3-1.1v-9.9H135z M135.3,57.8c0,0.2,0,0.3-0.1,0.4s-0.1,0.3-0.3,0.4
					c-0.1,0.1-0.2,0.2-0.4,0.2s-0.3,0.1-0.4,0.1s-0.3,0-0.4-0.1s-0.3-0.1-0.4-0.2c-0.1-0.1-0.2-0.2-0.2-0.4S133,58,133,57.8
					s0-0.3,0.1-0.4c0.1-0.1,0.1-0.3,0.2-0.4c0.1-0.1,0.2-0.2,0.4-0.2s0.3-0.1,0.4-0.1s0.3,0,0.4,0.1s0.3,0.1,0.4,0.2
					c0.1,0.1,0.2,0.2,0.3,0.4C135.3,57.5,135.3,57.6,135.3,57.8z" />
                    <path class="st1" d="M140.8,60.5c0.7,0,1.3,0.1,1.8,0.3c0.5,0.2,1,0.5,1.4,1c0.4,0.4,0.7,0.9,0.9,1.5s0.3,1.2,0.3,2
					c0,0.7-0.1,1.4-0.3,2s-0.5,1.1-0.9,1.5c-0.4,0.4-0.8,0.7-1.4,0.9c-0.5,0.2-1.1,0.3-1.8,0.3c-0.7,0-1.3-0.1-1.8-0.3
					c-0.5-0.2-1-0.5-1.4-0.9c-0.4-0.4-0.7-0.9-0.9-1.5s-0.3-1.2-0.3-2c0-0.7,0.1-1.4,0.3-2s0.5-1.1,0.9-1.5c0.4-0.4,0.8-0.7,1.4-1
					C139.5,60.7,140.1,60.5,140.8,60.5z M140.8,68.7c0.9,0,1.6-0.3,2-0.9c0.4-0.6,0.7-1.5,0.7-2.5c0-1.1-0.2-1.9-0.7-2.6
					c-0.4-0.6-1.1-0.9-2-0.9c-0.5,0-0.9,0.1-1.2,0.2s-0.6,0.4-0.9,0.7c-0.2,0.3-0.4,0.7-0.5,1.1s-0.2,0.9-0.2,1.5
					c0,1.1,0.2,1.9,0.7,2.5C139.2,68.4,139.9,68.7,140.8,68.7z" />
                    <path class="st1" d="M148.1,62c0.4-0.4,0.8-0.8,1.3-1.1c0.5-0.3,1-0.4,1.7-0.4c0.5,0,1,0.1,1.5,0.3c0.4,0.2,0.8,0.5,1.1,0.9
					s0.5,0.9,0.7,1.4s0.2,1.2,0.2,1.9c0,0.7-0.1,1.4-0.3,2c-0.2,0.6-0.4,1.1-0.8,1.6s-0.8,0.8-1.2,1s-1,0.4-1.7,0.4
					c-0.6,0-1.1-0.1-1.5-0.3c-0.4-0.2-0.8-0.5-1.1-1l-0.1,0.8c0,0.2-0.2,0.3-0.4,0.3h-1V56.5h1.6V62z M148.1,67.7
					c0.3,0.4,0.6,0.7,1,0.8s0.7,0.2,1.2,0.2c0.9,0,1.5-0.3,2-0.9c0.5-0.6,0.7-1.5,0.7-2.7c0-1.1-0.2-2-0.6-2.5
					c-0.4-0.5-1-0.8-1.7-0.8c-0.5,0-1,0.1-1.4,0.4s-0.8,0.6-1.1,1V67.7z" />
                    <path class="st1" d="M159.6,62c0.5-0.5,1.1-0.9,1.6-1.1s1.2-0.4,2-0.4c0.5,0,1,0.1,1.4,0.3c0.4,0.2,0.7,0.4,1,0.7
					c0.3,0.3,0.5,0.7,0.6,1.1c0.1,0.4,0.2,0.9,0.2,1.4v5.9h-0.7c-0.2,0-0.3,0-0.4-0.1s-0.2-0.2-0.2-0.3l-0.2-0.9
					c-0.2,0.2-0.5,0.4-0.7,0.6c-0.2,0.2-0.5,0.3-0.7,0.4c-0.3,0.1-0.5,0.2-0.8,0.3s-0.6,0.1-1,0.1c-0.4,0-0.7,0-1-0.2
					c-0.3-0.1-0.6-0.2-0.8-0.4c-0.2-0.2-0.4-0.5-0.6-0.8c-0.1-0.3-0.2-0.7-0.2-1.1c0-0.4,0.1-0.7,0.3-1c0.2-0.3,0.5-0.6,1-0.9
					c0.4-0.3,1-0.5,1.8-0.6c0.7-0.2,1.6-0.3,2.6-0.3V64c0-0.7-0.2-1.3-0.5-1.6c-0.3-0.4-0.8-0.5-1.4-0.5c-0.4,0-0.7,0-1,0.2
					c-0.3,0.1-0.5,0.2-0.7,0.3c-0.2,0.1-0.4,0.2-0.5,0.3c-0.1,0.1-0.3,0.2-0.4,0.2c-0.1,0-0.2,0-0.3-0.1c-0.1-0.1-0.1-0.1-0.2-0.2
					L159.6,62z M164.9,65.7c-0.7,0-1.4,0.1-1.9,0.2s-0.9,0.2-1.3,0.4s-0.6,0.3-0.7,0.5c-0.1,0.2-0.2,0.4-0.2,0.7
					c0,0.2,0,0.5,0.1,0.6c0.1,0.2,0.2,0.3,0.3,0.4c0.1,0.1,0.3,0.2,0.5,0.2c0.2,0.1,0.4,0.1,0.6,0.1c0.3,0,0.5,0,0.8-0.1
					c0.2-0.1,0.5-0.1,0.7-0.2c0.2-0.1,0.4-0.2,0.6-0.4c0.2-0.2,0.4-0.3,0.6-0.5V65.7z" />
                    <path class="st1" d="M173.5,62.2c-0.1,0.1-0.2,0.2-0.3,0.2c-0.1,0-0.2,0-0.3-0.1c-0.1-0.1-0.3-0.1-0.4-0.2
					c-0.2-0.1-0.4-0.2-0.6-0.2c-0.2-0.1-0.5-0.1-0.8-0.1c-0.3,0-0.5,0-0.7,0.1c-0.2,0.1-0.4,0.2-0.6,0.3s-0.3,0.3-0.4,0.4
					c-0.1,0.2-0.1,0.3-0.1,0.5c0,0.2,0.1,0.4,0.2,0.6c0.1,0.2,0.3,0.3,0.5,0.4s0.5,0.2,0.8,0.3c0.3,0.1,0.6,0.2,0.9,0.3
					c0.3,0.1,0.6,0.2,0.9,0.3c0.3,0.1,0.5,0.3,0.8,0.5c0.2,0.2,0.4,0.4,0.5,0.7c0.1,0.3,0.2,0.6,0.2,0.9c0,0.4-0.1,0.8-0.2,1.2
					c-0.2,0.4-0.4,0.7-0.7,0.9c-0.3,0.3-0.7,0.5-1.1,0.6c-0.4,0.2-0.9,0.2-1.5,0.2c-0.6,0-1.2-0.1-1.7-0.3s-1-0.5-1.3-0.8l0.4-0.6
					c0-0.1,0.1-0.1,0.2-0.2c0.1,0,0.2-0.1,0.3-0.1c0.1,0,0.2,0,0.3,0.1s0.3,0.2,0.4,0.3c0.2,0.1,0.4,0.2,0.6,0.3s0.6,0.1,0.9,0.1
					c0.3,0,0.6,0,0.8-0.1c0.2-0.1,0.4-0.2,0.6-0.3c0.2-0.1,0.3-0.3,0.3-0.5c0.1-0.2,0.1-0.4,0.1-0.6c0-0.3-0.1-0.5-0.2-0.6
					c-0.1-0.2-0.3-0.3-0.5-0.4c-0.2-0.1-0.5-0.2-0.8-0.3c-0.3-0.1-0.6-0.2-0.9-0.3c-0.3-0.1-0.6-0.2-0.9-0.3
					c-0.3-0.1-0.5-0.3-0.8-0.5c-0.2-0.2-0.4-0.4-0.5-0.7c-0.1-0.3-0.2-0.6-0.2-1c0-0.4,0.1-0.7,0.2-1c0.1-0.3,0.4-0.6,0.6-0.9
					s0.6-0.4,1-0.6c0.4-0.1,0.9-0.2,1.4-0.2c0.6,0,1.1,0.1,1.6,0.3c0.5,0.2,0.9,0.5,1.2,0.8L173.5,62.2z" />
                    <path class="st1" d="M180.7,62.2c-0.1,0.1-0.2,0.2-0.3,0.2c-0.1,0-0.2,0-0.3-0.1c-0.1-0.1-0.3-0.1-0.4-0.2
					c-0.2-0.1-0.4-0.2-0.6-0.2c-0.2-0.1-0.5-0.1-0.8-0.1c-0.3,0-0.5,0-0.7,0.1c-0.2,0.1-0.4,0.2-0.6,0.3s-0.3,0.3-0.4,0.4
					c-0.1,0.2-0.1,0.3-0.1,0.5c0,0.2,0.1,0.4,0.2,0.6c0.1,0.2,0.3,0.3,0.5,0.4s0.5,0.2,0.8,0.3c0.3,0.1,0.6,0.2,0.9,0.3
					c0.3,0.1,0.6,0.2,0.9,0.3c0.3,0.1,0.5,0.3,0.8,0.5c0.2,0.2,0.4,0.4,0.5,0.7c0.1,0.3,0.2,0.6,0.2,0.9c0,0.4-0.1,0.8-0.2,1.2
					c-0.2,0.4-0.4,0.7-0.7,0.9c-0.3,0.3-0.7,0.5-1.1,0.6c-0.4,0.2-0.9,0.2-1.5,0.2c-0.6,0-1.2-0.1-1.7-0.3s-1-0.5-1.3-0.8l0.4-0.6
					c0-0.1,0.1-0.1,0.2-0.2c0.1,0,0.2-0.1,0.3-0.1c0.1,0,0.2,0,0.3,0.1s0.3,0.2,0.4,0.3c0.2,0.1,0.4,0.2,0.6,0.3s0.6,0.1,0.9,0.1
					c0.3,0,0.6,0,0.8-0.1c0.2-0.1,0.4-0.2,0.6-0.3c0.2-0.1,0.3-0.3,0.3-0.5c0.1-0.2,0.1-0.4,0.1-0.6c0-0.3-0.1-0.5-0.2-0.6
					c-0.1-0.2-0.3-0.3-0.5-0.4c-0.2-0.1-0.5-0.2-0.8-0.3c-0.3-0.1-0.6-0.2-0.9-0.3c-0.3-0.1-0.6-0.2-0.9-0.3
					c-0.3-0.1-0.5-0.3-0.8-0.5c-0.2-0.2-0.4-0.4-0.5-0.7c-0.1-0.3-0.2-0.6-0.2-1c0-0.4,0.1-0.7,0.2-1c0.1-0.3,0.4-0.6,0.6-0.9
					s0.6-0.4,1-0.6c0.4-0.1,0.9-0.2,1.4-0.2c0.6,0,1.1,0.1,1.6,0.3c0.5,0.2,0.9,0.5,1.2,0.8L180.7,62.2z" />
                    <path class="st1" d="M184.5,57.8c0,0.2,0,0.3-0.1,0.4s-0.1,0.3-0.3,0.4c-0.1,0.1-0.2,0.2-0.4,0.2c-0.1,0.1-0.3,0.1-0.4,0.1
					s-0.3,0-0.4-0.1s-0.3-0.1-0.4-0.2c-0.1-0.1-0.2-0.2-0.2-0.4s-0.1-0.3-0.1-0.4s0-0.3,0.1-0.4c0.1-0.1,0.1-0.3,0.2-0.4
					c0.1-0.1,0.2-0.2,0.4-0.2s0.3-0.1,0.4-0.1s0.3,0,0.4,0.1c0.1,0.1,0.3,0.1,0.4,0.2c0.1,0.1,0.2,0.2,0.3,0.4
					C184.5,57.5,184.5,57.6,184.5,57.8z M184.2,60.7v9.2h-1.6v-9.2H184.2z" />
                    <path class="st1" d="M191.5,62.2c-0.1,0.1-0.2,0.2-0.3,0.2c-0.1,0-0.2,0-0.3-0.1c-0.1-0.1-0.3-0.1-0.4-0.2
					c-0.2-0.1-0.4-0.2-0.6-0.2c-0.2-0.1-0.5-0.1-0.8-0.1c-0.3,0-0.5,0-0.7,0.1c-0.2,0.1-0.4,0.2-0.6,0.3s-0.3,0.3-0.4,0.4
					c-0.1,0.2-0.1,0.3-0.1,0.5c0,0.2,0.1,0.4,0.2,0.6c0.1,0.2,0.3,0.3,0.5,0.4s0.5,0.2,0.8,0.3c0.3,0.1,0.6,0.2,0.9,0.3
					c0.3,0.1,0.6,0.2,0.9,0.3c0.3,0.1,0.5,0.3,0.8,0.5c0.2,0.2,0.4,0.4,0.5,0.7c0.1,0.3,0.2,0.6,0.2,0.9c0,0.4-0.1,0.8-0.2,1.2
					c-0.2,0.4-0.4,0.7-0.7,0.9c-0.3,0.3-0.7,0.5-1.1,0.6c-0.4,0.2-0.9,0.2-1.5,0.2c-0.6,0-1.2-0.1-1.7-0.3s-1-0.5-1.3-0.8l0.4-0.6
					c0-0.1,0.1-0.1,0.2-0.2c0.1,0,0.2-0.1,0.3-0.1c0.1,0,0.2,0,0.3,0.1s0.3,0.2,0.4,0.3c0.2,0.1,0.4,0.2,0.6,0.3s0.6,0.1,0.9,0.1
					c0.3,0,0.6,0,0.8-0.1c0.2-0.1,0.4-0.2,0.6-0.3c0.2-0.1,0.3-0.3,0.3-0.5c0.1-0.2,0.1-0.4,0.1-0.6c0-0.3-0.1-0.5-0.2-0.6
					c-0.1-0.2-0.3-0.3-0.5-0.4c-0.2-0.1-0.5-0.2-0.8-0.3c-0.3-0.1-0.6-0.2-0.9-0.3c-0.3-0.1-0.6-0.2-0.9-0.3
					c-0.3-0.1-0.5-0.3-0.8-0.5c-0.2-0.2-0.4-0.4-0.5-0.7c-0.1-0.3-0.2-0.6-0.2-1c0-0.4,0.1-0.7,0.2-1c0.1-0.3,0.4-0.6,0.6-0.9
					s0.6-0.4,1-0.6c0.4-0.1,0.9-0.2,1.4-0.2c0.6,0,1.1,0.1,1.6,0.3c0.5,0.2,0.9,0.5,1.2,0.8L191.5,62.2z" />
                    <path class="st1" d="M196.1,70c-0.7,0-1.3-0.2-1.7-0.6c-0.4-0.4-0.6-1-0.6-1.8V62h-1.1c-0.1,0-0.2,0-0.2-0.1s-0.1-0.1-0.1-0.3
					V61l1.5-0.2l0.4-2.8c0-0.1,0.1-0.2,0.1-0.2s0.1-0.1,0.2-0.1h0.8v3.2h2.7V62h-2.7v5.5c0,0.4,0.1,0.7,0.3,0.9s0.4,0.3,0.7,0.3
					c0.2,0,0.3,0,0.4-0.1c0.1,0,0.2-0.1,0.3-0.1s0.2-0.1,0.2-0.1c0.1,0,0.1-0.1,0.2-0.1c0.1,0,0.2,0.1,0.2,0.2l0.5,0.8
					c-0.3,0.3-0.6,0.5-1,0.6C196.9,69.9,196.5,70,196.1,70z" />
                    <path class="st1" d="M198.9,62c0.5-0.5,1.1-0.9,1.6-1.1s1.2-0.4,2-0.4c0.5,0,1,0.1,1.4,0.3c0.4,0.2,0.7,0.4,1,0.7
					c0.3,0.3,0.5,0.7,0.6,1.1c0.1,0.4,0.2,0.9,0.2,1.4v5.9h-0.7c-0.2,0-0.3,0-0.4-0.1s-0.2-0.2-0.2-0.3l-0.2-0.9
					c-0.2,0.2-0.5,0.4-0.7,0.6c-0.2,0.2-0.5,0.3-0.7,0.4c-0.3,0.1-0.5,0.2-0.8,0.3s-0.6,0.1-1,0.1c-0.4,0-0.7,0-1-0.2
					c-0.3-0.1-0.6-0.2-0.8-0.4c-0.2-0.2-0.4-0.5-0.6-0.8c-0.1-0.3-0.2-0.7-0.2-1.1c0-0.4,0.1-0.7,0.3-1c0.2-0.3,0.5-0.6,1-0.9
					c0.4-0.3,1-0.5,1.8-0.6c0.7-0.2,1.6-0.3,2.6-0.3V64c0-0.7-0.2-1.3-0.5-1.6c-0.3-0.4-0.8-0.5-1.4-0.5c-0.4,0-0.7,0-1,0.2
					c-0.3,0.1-0.5,0.2-0.7,0.3c-0.2,0.1-0.4,0.2-0.5,0.3c-0.1,0.1-0.3,0.2-0.4,0.2c-0.1,0-0.2,0-0.3-0.1c-0.1-0.1-0.1-0.1-0.2-0.2
					L198.9,62z M204.1,65.7c-0.7,0-1.4,0.1-1.9,0.2s-0.9,0.2-1.3,0.4s-0.6,0.3-0.7,0.5c-0.1,0.2-0.2,0.4-0.2,0.7
					c0,0.2,0,0.5,0.1,0.6c0.1,0.2,0.2,0.3,0.3,0.4c0.1,0.1,0.3,0.2,0.5,0.2c0.2,0.1,0.4,0.1,0.6,0.1c0.3,0,0.5,0,0.8-0.1
					c0.2-0.1,0.5-0.1,0.7-0.2c0.2-0.1,0.4-0.2,0.6-0.4c0.2-0.2,0.4-0.3,0.6-0.5V65.7z" />
                    <path class="st1"
                        d="M208.9,62c0.2-0.2,0.4-0.4,0.6-0.6s0.5-0.3,0.7-0.5s0.5-0.2,0.8-0.3c0.3-0.1,0.6-0.1,0.9-0.1
					c0.5,0,0.9,0.1,1.3,0.2c0.4,0.2,0.7,0.4,1,0.7c0.3,0.3,0.5,0.7,0.6,1.1s0.2,0.9,0.2,1.4v5.9h-1.6V64c0-0.7-0.2-1.2-0.5-1.6
					c-0.3-0.4-0.8-0.6-1.4-0.6c-0.5,0-0.9,0.1-1.3,0.3c-0.4,0.2-0.8,0.5-1.1,0.9v6.8h-1.6v-9.2h1c0.2,0,0.4,0.1,0.4,0.3L208.9,62z" />
                    <path class="st1" d="M219.5,70c-0.7,0-1.3-0.2-1.7-0.6c-0.4-0.4-0.6-1-0.6-1.8V62h-1.1c-0.1,0-0.2,0-0.2-0.1s-0.1-0.1-0.1-0.3
					V61l1.5-0.2l0.4-2.8c0-0.1,0.1-0.2,0.1-0.2s0.1-0.1,0.2-0.1h0.8v3.2h2.7V62h-2.7v5.5c0,0.4,0.1,0.7,0.3,0.9s0.4,0.3,0.7,0.3
					c0.2,0,0.3,0,0.4-0.1c0.1,0,0.2-0.1,0.3-0.1s0.2-0.1,0.2-0.1c0.1,0,0.1-0.1,0.2-0.1c0.1,0,0.2,0.1,0.2,0.2l0.5,0.8
					c-0.3,0.3-0.6,0.5-1,0.6C220.3,69.9,219.9,70,219.5,70z" />
                </g>
            </g>
        </g>
    </g>
</svg>