<?xml version="1.0" encoding="utf-8"?>
<!-- Generator: Adobe Illustrator 24.0.2, SVG Export Plug-In . SVG Version: 6.00 Build 0)  -->
<svg version="1.1" id="Livello_1" xmlns="http://www.w3.org/2000/svg" xmlns:xlink="http://www.w3.org/1999/xlink" x="0px"
    y="0px" viewBox="0 0 85.6 85.5" style="enable-background: new 0 0 270.6 85.5" xml:space="preserve">
    <style type="text/css">
        .st0 {
            fill: #FFFFFF;
        }
    </style>
    <g id="Livello_2_1_">
    </g>
    <g id="Livello_1_1_">
        <g>
            <path class="st0"
                d="M 19.9 24.1 h 11.4 c 1.5 0 2.7 1.2 2.7 2.7 V 33 c 0 2.9 2.4 5.2 5.3 5.2 c 2.9 0 5.2 -2.4 5.2 -5.2 v -6.4 c 0 -7.2 -5.8 -13 -13 -13 H 19.2 c -6.9 0 -12.5 5.6 -12.5 12.5 v 41.5 c 0 7.1 5.8 12.9 12.9 12.9 h 7.9 c 2.9 0 5.3 -2.4 5.3 -5.2 s -2.4 -5.2 -5.3 -5.2 h -7.6 c -1.5 0 -2.7 -1.2 -2.7 -2.7 V 26.7 C 17.2 25.3 18.4 24.1 19.9 24.1 z" />
            <path class="st0"
                d="M 58.7 5.1 h -7.8 c -2.9 0 -5.2 2.4 -5.2 5.2 s 2.4 5.2 5.2 5.2 h 7.6 c 1.5 0 2.7 1.2 2.7 2.7 v 40.5 c 0 1.5 -1.2 2.7 -2.7 2.7 H 47.1 c -1.5 0 -2.7 -1.2 -2.7 -2.7 v -6.3 c 0 -2.9 -2.4 -5.2 -5.2 -5.2 c -2.9 0 -5.3 2.4 -5.3 5.2 v 6.8 c 0 7 5.7 12.6 12.6 12.6 h 12.2 c 7.1 0 12.9 -5.8 12.9 -12.9 v -41 C 71.6 10.9 65.8 5.1 58.7 5.1 z" />
        </g>
    </g>
</svg>